<svg class="weather-section-item-img" width="36" height="37" viewBox="0 0 36 37" xmlns="http://www.w3.org/2000/svg">
    <path
        d="M19.6231 9.38624L19.5414 9.2053C19.4947 9.08273 19.4013 8.92514 19.3196 8.68C19.0663 7.97067 18.9457 7.22084 18.9635 6.46788C18.9972 5.26291 19.3693 4.09174 20.0375 3.08841C20.4541 2.44912 20.9819 1.88968 21.5959 1.43662C22.2631 0.939642 23.0116 0.562423 23.808 0.3218C25.6723 -0.227553 27.6737 -0.0695988 29.4288 0.765391C31.3473 1.71185 32.9122 3.24806 33.8939 5.14878C34.8972 7.18214 35.2808 9.46551 34.997 11.7151C34.7209 13.9714 33.9214 16.132 32.6623 18.0246C31.4198 19.8743 29.8348 21.4691 27.9929 22.7232C26.2522 23.9092 24.3596 24.8555 22.3663 25.5365C18.8858 26.7032 15.2546 27.3599 11.5859 27.4859C9.02162 27.6021 6.45266 27.5631 3.89309 27.3692C2.97089 27.2933 2.24129 27.2291 1.75101 27.1766L0.992234 27.1007C0.977639 27.0993 0.963478 27.0949 0.950571 27.088C0.937663 27.081 0.926265 27.0715 0.917037 27.0601C0.907809 27.0487 0.900933 27.0356 0.896809 27.0216C0.892685 27.0075 0.891393 26.9927 0.893009 26.9781C0.895965 26.9498 0.909746 26.9236 0.931488 26.9051C0.953229 26.8867 0.981258 26.8773 1.00974 26.8789H1.76852C2.26464 26.8789 2.9884 26.9198 3.9106 26.9315C6.44378 26.9707 8.97715 26.8655 11.4983 26.6163C13.179 26.4464 14.8489 26.1833 16.5004 25.8283C18.331 25.4502 20.1256 24.9152 21.8644 24.229C23.7026 23.5132 25.4361 22.5532 27.0182 21.3749C28.6181 20.1842 29.9685 18.6909 30.993 16.9798C31.9733 15.294 32.56 13.4085 32.709 11.4641C32.8859 9.64334 32.6112 7.80703 31.9094 6.11767C31.2129 4.58834 30.0558 3.31493 28.6 2.47555C27.2773 1.75736 25.7433 1.52995 24.2691 1.83351C23.6017 1.97006 22.9623 2.21873 22.378 2.56894C21.8487 2.87398 21.3766 3.26901 20.983 3.73629C20.3185 4.53066 19.8774 5.48755 19.7048 6.50873C19.5913 7.18495 19.5913 7.87537 19.7048 8.55159C19.734 8.7909 19.7982 8.97767 19.8215 9.10024L19.8449 9.33371C19.8524 9.36109 19.8492 9.39032 19.8358 9.41538C19.8225 9.44044 19.8 9.45942 19.773 9.4684C19.7461 9.47738 19.7167 9.47568 19.691 9.46366C19.6653 9.45163 19.6451 9.43019 19.6348 9.40375L19.6231 9.38624Z" />
    <path
        d="M21.4091 11.8435C21.4091 11.8435 21.3157 11.7209 21.1523 11.4641C20.9253 11.0755 20.7729 10.648 20.7029 10.2034C20.5824 9.49252 20.6653 8.76206 20.9422 8.09632C21.312 7.20656 21.9894 6.47943 22.8508 6.04763C23.8854 5.51421 25.0804 5.3812 26.2069 5.67408C27.4399 6.01519 28.5305 6.74366 29.3179 7.75196C30.1373 8.83566 30.6185 10.1372 30.7012 11.4933C30.7934 12.8515 30.5675 14.2125 30.0416 15.4681C29.516 16.6906 28.7679 17.8049 27.8354 18.7542C26.943 19.6362 25.9358 20.394 24.8411 21.0072C23.8303 21.5808 22.7742 22.0708 21.6834 22.4722C21.164 22.6648 20.6503 22.8166 20.1601 22.9741C19.6698 23.1317 19.1795 23.2485 18.7184 23.3594L17.3818 23.657L16.1677 23.873C15.4031 24.0014 14.7319 24.0773 14.1832 24.1532L12.4322 24.3283C12.4238 24.3291 12.4153 24.3282 12.4072 24.3257C12.3991 24.3232 12.3916 24.3191 12.3851 24.3137C12.3785 24.3083 12.3732 24.3016 12.3692 24.2941C12.3653 24.2866 12.3629 24.2783 12.3622 24.2699C12.362 24.2532 12.3677 24.2369 12.3784 24.2241C12.3891 24.2112 12.4041 24.2027 12.4206 24.1999L14.1482 23.9255C14.691 23.8146 15.3506 23.7037 16.0977 23.5345L17.265 23.2485L18.5666 22.8808C19.0161 22.7465 19.4772 22.5831 19.9616 22.4255C20.4461 22.2679 20.9247 22.0636 21.4208 21.8418C22.4533 21.41 23.4488 20.8946 24.3975 20.3009C25.4034 19.6898 26.3222 18.9457 27.1291 18.0888C27.9314 17.2036 28.5574 16.1735 28.9735 15.0537C29.1642 14.4971 29.2953 13.9219 29.3646 13.3377C29.4215 12.7554 29.4215 12.169 29.3646 11.5867C29.2557 10.498 28.8874 9.45118 28.2906 8.53408C27.7023 7.70151 26.8641 7.07796 25.8976 6.75388C25.0383 6.48063 24.11 6.51991 23.2769 6.86477C22.5493 7.15538 21.9435 7.68697 21.5609 8.37065C21.2604 8.90493 21.1054 9.50872 21.1114 10.1217C21.1216 10.5322 21.1984 10.9383 21.3391 11.324C21.4441 11.5984 21.52 11.7384 21.52 11.7384C21.5293 11.7531 21.5324 11.7709 21.5285 11.7879C21.5247 11.8049 21.5143 11.8196 21.4996 11.8289C21.4849 11.8382 21.4671 11.8413 21.4501 11.8374C21.4332 11.8336 21.4184 11.8232 21.4091 11.8085V11.8435Z" />
    <path
        d="M10.9089 15.5265C10.9089 15.5265 10.8563 15.4214 10.7863 15.1996C10.6833 14.8755 10.6417 14.5351 10.6637 14.1957C10.6928 13.6514 10.8771 13.1268 11.1949 12.684C11.6242 12.1022 12.2437 11.6892 12.9459 11.5166C13.7984 11.2934 14.7034 11.3954 15.4849 11.8026C16.3375 12.259 17.0209 12.9772 17.4343 13.8513C17.8531 14.788 17.991 15.8262 17.8312 16.8397C17.6664 17.8574 17.2667 18.8226 16.6639 19.6589C16.0717 20.4727 15.3335 21.1693 14.4868 21.7134C13.6794 22.2174 12.8077 22.6101 11.8953 22.8808C11.0547 23.1454 10.1938 23.3406 9.32128 23.4644C8.54647 23.5591 7.7671 23.6117 6.98659 23.622H5.95933L5.02545 23.5812C4.44178 23.5461 3.93398 23.4936 3.51374 23.4586L2.20631 23.2952C2.19341 23.2924 2.18205 23.2848 2.17447 23.274C2.1669 23.2632 2.16368 23.2499 2.16545 23.2368C2.16814 23.225 2.17485 23.2144 2.18442 23.207C2.194 23.1995 2.20586 23.1956 2.21798 23.1959L3.50206 23.2426C3.92231 23.2426 4.42427 23.2777 5.00794 23.2777H5.93014L7.0041 23.2135C7.76721 23.1595 8.527 23.066 9.28043 22.9333C10.1137 22.7863 10.9335 22.5716 11.7319 22.2913C12.5744 21.9972 13.3735 21.5908 14.1074 21.083C14.8468 20.5656 15.4807 19.9119 15.9752 19.1569C16.4393 18.4066 16.7341 17.564 16.839 16.688C16.9438 15.8674 16.8456 15.0337 16.553 14.2599C16.2581 13.5458 15.7428 12.9445 15.0821 12.5439C14.4945 12.1995 13.8048 12.0714 13.1327 12.182C12.5459 12.2697 12.0087 12.5611 11.6151 13.005C11.3031 13.3563 11.0879 13.7827 10.9906 14.2424C10.9226 14.5468 10.9048 14.8603 10.9381 15.1704C10.9731 15.3864 11.0023 15.509 11.0023 15.509C11.0027 15.52 10.9996 15.5309 10.9935 15.5401C10.9874 15.5493 10.9786 15.5563 10.9682 15.5602C10.9579 15.5641 10.9466 15.5646 10.9359 15.5617C10.9253 15.5588 10.9158 15.5526 10.9089 15.544V15.5265Z" />
    <path
        d="M9.13448 34.385C9.13448 34.385 9.13448 34.4667 9.2162 34.6126C9.3 34.8264 9.42049 35.0239 9.57224 35.1963C9.79173 35.4451 10.0739 35.6305 10.3894 35.7332C10.782 35.8731 11.2108 35.8731 11.6034 35.7332C12.0521 35.5824 12.4394 35.2893 12.7066 34.8986C12.8428 34.6905 12.9366 34.4576 12.9826 34.2132C13.0287 33.9689 13.0261 33.7178 12.9751 33.4744C12.8685 32.9352 12.58 32.4489 12.1579 32.097C11.6814 31.7394 11.1433 31.4723 10.5703 31.309C9.95245 31.1329 9.32493 30.9926 8.69089 30.8888C8.05469 30.7779 7.41265 30.7137 6.79395 30.6319L4.99624 30.4452L3.37363 30.2876C2.36388 30.1883 1.52339 30.095 0.933877 30.0191C0.344367 29.9432 0 29.8381 0 29.8381C1.12181 29.669 2.25186 29.5599 3.3853 29.5113C3.8931 29.4821 4.44759 29.4704 5.03126 29.4646C5.61493 29.4588 6.23363 29.4646 6.87567 29.5055C7.53997 29.5364 8.20231 29.6006 8.86016 29.6981C9.55803 29.7895 10.2459 29.9458 10.9147 30.165C11.6299 30.3841 12.2876 30.7588 12.8408 31.2623C13.1252 31.5314 13.3585 31.8498 13.5295 32.202C13.6092 32.3751 13.6736 32.5548 13.7222 32.739L13.7864 33.025L13.8155 33.2643C13.8705 33.622 13.8507 33.9872 13.7573 34.3369C13.6638 34.6865 13.4988 35.0129 13.2727 35.2955C12.8732 35.7807 12.3223 36.1177 11.7085 36.2527C11.2038 36.3646 10.6759 36.2987 10.2143 36.0659C9.87217 35.8879 9.58549 35.6194 9.38546 35.2897C9.26469 35.0843 9.18167 34.8589 9.14032 34.6243C9.14032 34.4667 9.13448 34.385 9.13448 34.385Z" />
</svg>